<svg xmlns="http://www.w3.org/2000/svg" width="1000" height="1000" fill="none" viewBox="0 0 1000 1000">
  <path fill="#000009" stroke="#000009" stroke-width="10" d="M443.254 816.833 495 846.641v144.708L315.125 887.733v-56.717l76.375-43.995 51.754 29.812ZM923.981 750 505 991.349V846.641l293.375-168.995L923.981 750Zm-727.356 69.474L76.018 750l120.607-69.475v138.949Zm184.856-38.224-66.356 38.224v-76.449l66.356 38.225Zm59.269 22.599-39.232-22.599 39.232-22.6v45.199ZM495 715.858l-51.746 29.809-51.754 29.812-76.375-43.996v-56.717L495 571.15v144.708Zm-303.394-43.983L71 741.349V602.4l120.606 69.475ZM929 409.141v332.208l-125.625-72.366V336.775L929 409.141ZM679.856 609.375 505 710.099V565.391l49.25-28.37 125.606 72.354ZM196.625 331.016v332.208L71 590.858V258.65l125.625 72.366Zm488.25 269.708L564.268 531.25l120.607-69.475v138.949ZM435.731 468.75l-120.606 69.474V399.275l120.606 69.475ZM495 434.608l-49.25 28.371-125.607-72.354L495 289.9v144.708Zm189.875-166.092v56.717L505 428.849V284.141l51.746-29.808 51.754-29.812 76.375 43.995ZM929 397.599l-120.607-69.474L929 258.65v138.949ZM495 153.358 201.625 322.354 76.018 250 495 8.65v144.708ZM923.981 250l-120.606 69.474V180.525L923.981 250Zm-239.106 6.974-66.357-38.224 66.357-38.225v76.449Zm-86.394-38.224-39.231 22.599V196.15l39.231 22.6Zm86.394-106.484v56.717L608.5 212.979l-51.754-29.812L505 153.358V8.65l179.875 103.616Z"/>
</svg>
